<svg version="1.1" id="Layer_1" xmlns="http://www.w3.org/2000/svg" xmlns:xlink="http://www.w3.org/1999/xlink" x="0px" y="0px"
	 width="100%" viewBox="0 0 500 500" enable-background="new 0 0 500 500" xml:space="preserve">
<path fill="#225378" opacity="1.000000" stroke="none" 
	d="
M226.000000,501.000000 
	C150.666687,501.000000 75.833366,501.000000 1.000040,501.000000 
	C1.000027,334.333405 1.000027,167.666779 1.000013,1.000130 
	C167.666565,1.000086 334.333130,1.000086 500.999756,1.000043 
	C500.999847,167.666534 500.999847,334.333069 500.999939,500.999817 
	C409.500000,501.000000 318.000000,501.000000 226.000000,501.000000 
M401.500000,302.951996 
	C408.665405,302.951935 415.844696,302.681396 422.991364,303.047363 
	C427.715088,303.289276 429.274628,301.941254 429.246246,296.993774 
	C429.041809,261.334198 429.013489,225.672012 429.269073,190.013077 
	C429.307587,184.642395 427.430817,183.751480 422.661316,183.770920 
	C382.835205,183.933228 343.008087,183.829727 303.181763,183.959183 
	C301.132965,183.965836 299.088715,185.367676 297.042328,186.119965 
	C299.027802,186.749985 301.011780,187.924042 302.998993,187.929596 
	C341.825592,188.038132 380.652863,188.075897 419.479126,187.919205 
	C423.810394,187.901733 425.171326,189.002670 425.146606,193.479492 
	C424.963287,226.639664 424.962402,259.801758 425.145905,292.961914 
	C425.171356,297.559845 423.846710,298.868988 419.258484,298.864288 
	C306.277313,298.749146 193.295944,298.746552 80.314766,298.868103 
	C75.456909,298.873322 74.104912,297.377045 74.131081,292.612213 
	C74.311325,259.785278 74.316185,226.956390 74.124405,194.129623 
	C74.096848,189.413925 75.270729,187.878769 80.183556,187.903427 
	C118.676216,188.096512 157.170273,188.010635 195.663910,188.008865 
	C197.163513,188.008804 198.734344,188.258652 200.138489,187.887344 
	C201.127518,187.625824 201.890121,186.508072 202.753830,185.772629 
	C201.931503,185.152969 201.188049,184.223404 200.267624,183.989182 
	C199.011917,183.669617 197.621368,183.865204 196.288635,183.865112 
	C156.461899,183.862503 116.635155,183.861069 76.808411,183.864899 
	C70.131546,183.865540 70.122704,183.877060 70.122047,190.802948 
	C70.118767,225.463882 70.106110,260.124817 70.130219,294.785736 
	C70.136543,303.876678 69.309570,302.940308 78.053360,302.941589 
	C185.535568,302.957611 293.017792,302.951935 401.500000,302.951996 
M222.394073,252.105240 
	C226.529587,259.108368 233.082397,261.513977 239.514328,258.143860 
	C240.782654,257.479309 242.255737,255.937820 242.407562,254.655502 
	C242.811081,251.247498 242.544617,247.760162 242.544617,244.207672 
	C241.052322,244.098190 240.029556,243.812088 239.101715,243.998535 
	C237.098953,244.400986 235.144928,245.046005 233.170944,245.591751 
	C234.975220,246.329529 236.779495,247.067307 238.702072,247.853439 
	C239.379028,254.263458 239.132812,255.026489 236.009293,255.831955 
	C231.601059,256.968750 227.154663,254.737350 225.912231,249.983765 
	C225.101501,246.881821 224.877762,243.329163 225.515472,240.208145 
	C226.821152,233.818115 231.955994,231.587311 238.064026,233.970428 
	C239.118042,234.381653 240.470261,234.028625 242.750198,234.028625 
	C235.054901,226.838409 224.729630,229.068466 222.245483,237.791641 
	C221.045410,242.005722 222.077713,246.855545 222.394073,252.105240 
M264.991913,259.398254 
	C276.429138,259.221771 276.631195,256.746918 274.813202,243.953552 
	C273.704346,243.953552 272.524841,243.795090 271.406921,243.989960 
	C269.643372,244.297379 267.921173,244.842133 266.181488,245.286438 
	C267.777344,245.918732 269.377045,246.541626 270.965576,247.191849 
	C271.256592,247.310989 271.502106,247.541183 271.765228,247.725189 
	C272.314606,254.937180 271.161591,256.559845 265.843109,255.972809 
	C261.842621,255.531235 259.582855,252.965927 258.613800,249.357224 
	C257.215973,244.151794 257.052887,238.630219 261.620636,235.135086 
	C263.745789,233.508957 267.653595,234.148819 270.764648,233.905930 
	C272.025940,233.807465 273.317291,234.093842 274.594971,234.205109 
	C274.681610,233.298279 274.768250,232.391449 274.854889,231.484604 
	C271.488190,230.882980 268.061584,229.559631 264.767456,229.832886 
	C258.297150,230.369553 254.403809,235.658661 253.928391,243.259216 
	C253.410721,251.535385 256.984192,257.092682 264.991913,259.398254 
M255.566376,159.316849 
	C254.570587,160.312347 253.003601,161.145508 252.667419,162.328445 
	C249.310837,174.139404 246.051758,185.981781 243.087509,197.895477 
	C242.740738,199.289124 244.335938,201.165955 245.030869,202.818787 
	C246.560852,201.674332 249.038910,200.808640 249.470398,199.341187 
	C252.839249,187.884125 255.824097,176.313919 258.904602,164.772522 
	C259.581299,162.237183 259.305664,160.094101 255.566376,159.316849 
M288.525635,246.481155 
	C288.525635,250.570282 288.525635,254.659424 288.525635,258.979340 
	C295.689209,258.825897 302.873169,260.648743 306.921814,253.293121 
	C310.281982,247.188309 310.391449,240.648941 306.442322,234.857849 
	C302.091858,228.478210 295.272095,229.926559 288.525726,230.239502 
	C288.525726,235.574371 288.525726,240.532242 288.525635,246.481155 
M351.107452,231.299728 
	C349.836090,230.814316 348.564758,230.328918 346.412262,229.507080 
	C349.466034,239.304199 352.064728,247.886536 354.888000,256.394348 
	C355.248718,257.481415 356.677917,258.658722 357.803009,258.898438 
	C358.618439,259.072174 360.358185,257.964172 360.645477,257.087036 
	C363.523712,248.298233 366.186310,239.438797 368.909637,230.599243 
	C368.102325,230.216248 367.294983,229.833267 366.487671,229.450272 
	C361.414856,235.733215 362.562500,245.270828 357.280975,252.536774 
	C355.122711,245.083725 353.231476,238.552826 351.107452,231.299728 
M209.965637,256.222534 
	C205.900452,255.942490 201.835251,255.662460 197.634125,255.373047 
	C197.634125,251.910446 197.634125,248.845947 197.634125,246.104630 
	C200.928436,243.712448 205.800751,247.502319 208.742035,241.989151 
	C204.388947,241.989151 200.975342,241.989151 197.449188,241.989151 
	C197.449188,238.783478 197.449188,236.143631 197.449188,232.899063 
	C201.675537,232.899063 205.742111,232.899063 210.069366,232.899063 
	C208.555191,229.708939 201.414154,228.982925 193.795959,230.706879 
	C193.795959,239.962921 193.795959,249.244110 193.795959,259.004456 
	C198.799225,259.004456 203.587753,259.084351 208.367264,258.912628 
	C209.034073,258.888672 209.656418,257.627075 209.965637,256.222534 
M329.292114,241.983963 
	C328.029144,241.867828 326.766144,241.751709 325.508118,241.636032 
	C325.508118,238.674088 325.508118,236.059464 325.508118,233.613342 
	C329.562683,231.693115 334.501007,234.832642 337.799622,230.345474 
	C332.568726,230.345474 327.337830,230.345474 321.835144,230.345474 
	C321.835144,239.747757 321.835144,249.167755 321.835144,258.688416 
	C327.441437,258.688416 332.822388,258.688416 339.408539,258.688416 
	C335.118042,253.468994 329.745300,257.361603 325.712036,255.024155 
	C325.712036,251.969666 325.712036,248.779922 325.712036,245.641800 
	C335.097443,244.604523 335.097443,244.604523 335.698029,241.984146 
	C333.811066,241.984146 332.007385,241.984146 329.292114,241.983963 
M264.969757,176.521133 
	C266.793457,177.686874 268.617188,178.852631 271.141113,180.465958 
	C267.146484,184.122879 264.461060,186.153290 262.388214,188.685165 
	C261.533539,189.729095 261.994751,191.850372 261.857422,193.481628 
	C263.622498,193.481644 265.982086,194.211731 267.043365,193.347504 
	C270.496490,190.535568 273.661896,187.296936 276.521851,183.874756 
	C277.379272,182.848785 277.624756,180.042404 276.863708,179.153442 
	C273.640747,175.388779 270.057861,171.894180 266.299683,168.657166 
	C265.528137,167.992569 263.073914,168.394409 262.079620,169.175629 
	C261.372406,169.731323 261.433746,171.881073 261.851105,173.075073 
	C262.250763,174.218582 263.552429,175.046814 264.969757,176.521133 
M162.753952,234.837189 
	C162.754684,241.804779 162.778641,248.772476 162.744156,255.739883 
	C162.731277,258.343292 163.175980,260.123077 166.652161,258.099854 
	C166.652161,255.025818 166.652161,251.759735 166.652161,247.977234 
	C169.126282,247.977234 171.263916,248.161392 173.358917,247.940689 
	C178.453033,247.404037 181.503250,243.968765 181.538300,238.996155 
	C181.574905,233.802704 178.869629,230.758926 173.453033,230.167328 
	C171.153610,229.916199 168.791397,230.211517 166.499863,229.923370 
	C163.217606,229.510635 162.394958,231.082077 162.753952,234.837189 
M236.149551,194.303207 
	C237.530106,193.800934 239.675186,193.640656 240.092621,192.707504 
	C240.585663,191.605347 240.028275,189.452026 239.144531,188.431061 
	C237.024918,185.982330 234.447952,183.929489 231.542725,181.242599 
	C234.656586,178.343643 237.321411,176.284348 239.385788,173.738220 
	C240.240494,172.684067 239.809601,170.587555 239.963394,168.965118 
	C238.196259,168.984650 235.855118,168.287369 234.768890,169.157196 
	C231.414688,171.843185 228.511108,175.099457 225.487823,178.188385 
	C223.547485,180.170868 223.395737,182.164322 225.548309,184.217926 
	C228.915344,187.430161 232.193619,190.735443 236.149551,194.303207 
M145.905151,230.153839 
	C145.644424,230.892487 145.167053,231.628265 145.157227,232.370224 
	C145.078171,238.346146 145.256744,244.329971 145.020081,250.298019 
	C144.797089,255.921585 142.077682,257.230957 137.211990,254.531372 
	C136.274826,254.011429 134.983856,254.129150 132.994019,253.817825 
	C135.601395,258.982056 139.081787,259.931946 143.110565,259.207092 
	C146.927185,258.520386 148.762955,255.654770 148.918091,252.071808 
	C149.197922,245.608887 149.180298,239.126572 149.023804,232.658722 
	C149.001648,231.743301 147.500961,230.863663 145.905151,230.153839 
z"/>
<path fill="#5E9FD0" opacity="1.000000" stroke="none" 
	d="
M401.000000,302.951935 
	C293.017792,302.951935 185.535568,302.957611 78.053360,302.941589 
	C69.309570,302.940308 70.136543,303.876678 70.130219,294.785736 
	C70.106110,260.124817 70.118767,225.463882 70.122047,190.802948 
	C70.122704,183.877060 70.131546,183.865540 76.808411,183.864899 
	C116.635155,183.861069 156.461899,183.862503 196.288635,183.865112 
	C197.621368,183.865204 199.011917,183.669617 200.267624,183.989182 
	C201.188049,184.223404 201.931503,185.152969 202.753815,185.772614 
	C201.890121,186.508072 201.127518,187.625824 200.138489,187.887344 
	C198.734344,188.258652 197.163513,188.008804 195.663910,188.008865 
	C157.170273,188.010635 118.676216,188.096512 80.183556,187.903427 
	C75.270729,187.878769 74.096848,189.413925 74.124405,194.129623 
	C74.316185,226.956390 74.311325,259.785278 74.131081,292.612213 
	C74.104912,297.377045 75.456909,298.873322 80.314766,298.868103 
	C193.295944,298.746552 306.277313,298.749146 419.258484,298.864288 
	C423.846710,298.868988 425.171356,297.559845 425.145905,292.961914 
	C424.962402,259.801758 424.963287,226.639664 425.146606,193.479492 
	C425.171326,189.002670 423.810394,187.901733 419.479126,187.919205 
	C380.652863,188.075897 341.825592,188.038132 302.998993,187.929596 
	C301.011780,187.924042 299.027802,186.749985 297.042328,186.119965 
	C299.088715,185.367676 301.132965,183.965836 303.181763,183.959183 
	C343.008087,183.829727 382.835205,183.933228 422.661316,183.770920 
	C427.430817,183.751480 429.307587,184.642395 429.269073,190.013077 
	C429.013489,225.672012 429.041809,261.334198 429.246246,296.993774 
	C429.274628,301.941254 427.715088,303.289276 422.991364,303.047363 
	C415.844696,302.681396 408.665405,302.951935 401.000000,302.951935 
z"/>
<path fill="#EAEFF2" opacity="1.000000" stroke="none" 
	d="
M222.246643,251.761383 
	C222.077713,246.855545 221.045410,242.005722 222.245483,237.791641 
	C224.729630,229.068466 235.054901,226.838409 242.750198,234.028625 
	C240.470261,234.028625 239.118042,234.381653 238.064026,233.970428 
	C231.955994,231.587311 226.821152,233.818115 225.515472,240.208145 
	C224.877762,243.329163 225.101501,246.881821 225.912231,249.983765 
	C227.154663,254.737350 231.601059,256.968750 236.009293,255.831955 
	C239.132812,255.026489 239.379028,254.263458 238.702072,247.853439 
	C236.779495,247.067307 234.975220,246.329529 233.170944,245.591766 
	C235.144928,245.046005 237.098953,244.400986 239.101715,243.998535 
	C240.029556,243.812088 241.052322,244.098190 242.544617,244.207672 
	C242.544617,247.760162 242.811081,251.247498 242.407562,254.655502 
	C242.255737,255.937820 240.782654,257.479309 239.514328,258.143860 
	C233.082397,261.513977 226.529587,259.108368 222.246643,251.761383 
z"/>
<path fill="#EAEFF2" opacity="1.000000" stroke="none" 
	d="
M264.605469,259.330475 
	C256.984192,257.092682 253.410721,251.535385 253.928391,243.259216 
	C254.403809,235.658661 258.297150,230.369553 264.767456,229.832886 
	C268.061584,229.559631 271.488190,230.882980 274.854889,231.484604 
	C274.768250,232.391449 274.681610,233.298279 274.594971,234.205109 
	C273.317291,234.093842 272.025940,233.807465 270.764648,233.905930 
	C267.653595,234.148819 263.745789,233.508957 261.620636,235.135086 
	C257.052887,238.630219 257.215973,244.151794 258.613800,249.357224 
	C259.582855,252.965927 261.842621,255.531235 265.843109,255.972809 
	C271.161591,256.559845 272.314606,254.937180 271.766937,247.722656 
	C271.502106,247.541183 271.256592,247.310989 270.965576,247.191849 
	C269.377045,246.541626 267.777344,245.918732 266.181488,245.286438 
	C267.921173,244.842133 269.643372,244.297379 271.406921,243.989960 
	C272.524841,243.795090 273.704346,243.953552 274.813202,243.953552 
	C276.631195,256.746918 276.429138,259.221771 264.605469,259.330475 
z"/>
<path fill="#F2F5F7" opacity="1.000000" stroke="none" 
	d="
M255.918549,159.317612 
	C259.305664,160.094101 259.581299,162.237183 258.904602,164.772522 
	C255.824097,176.313919 252.839249,187.884125 249.470398,199.341187 
	C249.038910,200.808640 246.560852,201.674332 245.030884,202.818787 
	C244.335938,201.165955 242.740738,199.289124 243.087509,197.895477 
	C246.051758,185.981781 249.310837,174.139404 252.667419,162.328445 
	C253.003601,161.145508 254.570587,160.312347 255.918549,159.317612 
z"/>
<path fill="#EEF2F5" opacity="1.000000" stroke="none" 
	d="
M288.525696,245.985626 
	C288.525726,240.532242 288.525726,235.574371 288.525726,230.239502 
	C295.272095,229.926559 302.091858,228.478210 306.442322,234.857849 
	C310.391449,240.648941 310.281982,247.188309 306.921814,253.293121 
	C302.873169,260.648743 295.689209,258.825897 288.525635,258.979340 
	C288.525635,254.659424 288.525635,250.570282 288.525696,245.985626 
M292.262726,248.382965 
	C292.262726,250.812698 292.262726,253.242432 292.262726,255.615402 
	C298.625916,256.123901 301.345215,255.135391 303.291077,251.879120 
	C305.844208,247.606537 305.896454,240.141937 303.234283,236.717133 
	C300.502625,233.202957 296.779999,232.662003 292.262787,233.357574 
	C292.262787,238.205292 292.262787,242.811874 292.262726,248.382965 
z"/>
<path fill="#E0E7EC" opacity="1.000000" stroke="none" 
	d="
M351.223846,231.660828 
	C353.231476,238.552826 355.122711,245.083725 357.280975,252.536774 
	C362.562500,245.270828 361.414856,235.733215 366.487671,229.450272 
	C367.294983,229.833267 368.102325,230.216248 368.909637,230.599243 
	C366.186310,239.438797 363.523712,248.298233 360.645477,257.087036 
	C360.358185,257.964172 358.618439,259.072174 357.803009,258.898438 
	C356.677917,258.658722 355.248718,257.481415 354.888000,256.394348 
	C352.064728,247.886536 349.466034,239.304199 346.412262,229.507080 
	C348.564758,230.328918 349.836090,230.814316 351.223846,231.660828 
z"/>
<path fill="#F8F9FB" opacity="1.000000" stroke="none" 
	d="
M210.132507,256.580444 
	C209.656418,257.627075 209.034073,258.888672 208.367264,258.912628 
	C203.587753,259.084351 198.799225,259.004456 193.795959,259.004456 
	C193.795959,249.244110 193.795959,239.962921 193.795959,230.706879 
	C201.414154,228.982925 208.555191,229.708939 210.069366,232.899063 
	C205.742111,232.899063 201.675537,232.899063 197.449188,232.899063 
	C197.449188,236.143631 197.449188,238.783478 197.449188,241.989151 
	C200.975342,241.989151 204.388947,241.989151 208.742035,241.989151 
	C205.800751,247.502319 200.928436,243.712448 197.634125,246.104630 
	C197.634125,248.845947 197.634125,251.910446 197.634125,255.373047 
	C201.835251,255.662460 205.900452,255.942490 210.132507,256.580444 
z"/>
<path fill="#F8F9FB" opacity="1.000000" stroke="none" 
	d="
M329.747894,241.984055 
	C332.007385,241.984146 333.811066,241.984146 335.698029,241.984146 
	C335.097443,244.604523 335.097443,244.604523 325.712036,245.641800 
	C325.712036,248.779922 325.712036,251.969666 325.712036,255.024155 
	C329.745300,257.361603 335.118042,253.468994 339.408539,258.688416 
	C332.822388,258.688416 327.441437,258.688416 321.835144,258.688416 
	C321.835144,249.167755 321.835144,239.747757 321.835144,230.345474 
	C327.337830,230.345474 332.568726,230.345474 337.799622,230.345474 
	C334.501007,234.832642 329.562683,231.693115 325.508118,233.613342 
	C325.508118,236.059464 325.508118,238.674088 325.508118,241.636032 
	C326.766144,241.751709 328.029144,241.867828 329.747894,241.984055 
z"/>
<path fill="#F1F4F7" opacity="1.000000" stroke="none" 
	d="
M264.713715,176.267365 
	C263.552429,175.046814 262.250763,174.218582 261.851105,173.075073 
	C261.433746,171.881073 261.372406,169.731323 262.079620,169.175629 
	C263.073914,168.394409 265.528137,167.992569 266.299683,168.657166 
	C270.057861,171.894180 273.640747,175.388779 276.863708,179.153442 
	C277.624756,180.042404 277.379272,182.848785 276.521851,183.874756 
	C273.661896,187.296936 270.496490,190.535568 267.043365,193.347504 
	C265.982086,194.211731 263.622498,193.481644 261.857422,193.481628 
	C261.994751,191.850372 261.533539,189.729095 262.388214,188.685165 
	C264.461060,186.153290 267.146484,184.122879 271.141113,180.465958 
	C268.617188,178.852631 266.793457,177.686874 264.713715,176.267365 
z"/>
<path fill="#F0F4F6" opacity="1.000000" stroke="none" 
	d="
M162.754395,234.378281 
	C162.394958,231.082077 163.217606,229.510635 166.499863,229.923370 
	C168.791397,230.211517 171.153610,229.916199 173.453033,230.167328 
	C178.869629,230.758926 181.574905,233.802704 181.538300,238.996155 
	C181.503250,243.968765 178.453033,247.404037 173.358917,247.940689 
	C171.263916,248.161392 169.126282,247.977234 166.652161,247.977234 
	C166.652161,251.759735 166.652161,255.025818 166.652161,258.099854 
	C163.175980,260.123077 162.731277,258.343292 162.744156,255.739883 
	C162.778641,248.772476 162.754684,241.804779 162.754395,234.378281 
M173.670654,244.656937 
	C177.599030,243.311676 178.772476,240.221558 177.435883,236.788971 
	C175.464127,231.725204 170.876862,233.148621 166.717072,233.217346 
	C166.717072,237.216782 166.717072,240.941162 166.717072,244.830963 
	C168.939743,244.830963 170.898270,244.830963 173.670654,244.656937 
z"/>
<path fill="#F4F7F8" opacity="1.000000" stroke="none" 
	d="
M235.829529,194.152252 
	C232.193619,190.735443 228.915344,187.430161 225.548309,184.217926 
	C223.395737,182.164322 223.547485,180.170868 225.487823,178.188385 
	C228.511108,175.099457 231.414688,171.843185 234.768890,169.157196 
	C235.855118,168.287369 238.196259,168.984650 239.963379,168.965118 
	C239.809601,170.587555 240.240494,172.684067 239.385788,173.738220 
	C237.321411,176.284348 234.656586,178.343643 231.542725,181.242599 
	C234.447952,183.929489 237.024918,185.982330 239.144531,188.431061 
	C240.028275,189.452026 240.585663,191.605347 240.092621,192.707504 
	C239.675186,193.640656 237.530106,193.800934 235.829529,194.152252 
z"/>
<path fill="#E1E8ED" opacity="1.000000" stroke="none" 
	d="
M146.294876,230.060654 
	C147.500961,230.863663 149.001648,231.743301 149.023804,232.658722 
	C149.180298,239.126572 149.197922,245.608887 148.918091,252.071808 
	C148.762955,255.654770 146.927185,258.520386 143.110565,259.207092 
	C139.081787,259.931946 135.601395,258.982056 132.994019,253.817825 
	C134.983856,254.129150 136.274826,254.011429 137.211990,254.531372 
	C142.077682,257.230957 144.797089,255.921585 145.020081,250.298019 
	C145.256744,244.329971 145.078171,238.346146 145.157227,232.370224 
	C145.167053,231.628265 145.644424,230.892487 146.294876,230.060654 
z"/>
<path fill="#2E5D7F" opacity="1.000000" stroke="none" 
	d="
M292.262756,247.900711 
	C292.262787,242.811874 292.262787,238.205292 292.262787,233.357574 
	C296.779999,232.662003 300.502625,233.202957 303.234283,236.717133 
	C305.896454,240.141937 305.844208,247.606537 303.291077,251.879120 
	C301.345215,255.135391 298.625916,256.123901 292.262726,255.615402 
	C292.262726,253.242432 292.262726,250.812698 292.262756,247.900711 
z"/>
<path fill="#346183" opacity="1.000000" stroke="none" 
	d="
M173.263733,244.743958 
	C170.898270,244.830963 168.939743,244.830963 166.717072,244.830963 
	C166.717072,240.941162 166.717072,237.216782 166.717072,233.217346 
	C170.876862,233.148621 175.464127,231.725204 177.435883,236.788971 
	C178.772476,240.221558 177.599030,243.311676 173.263733,244.743958 
z"/>
</svg>